<svg xmlns="http://www.w3.org/2000/svg" viewBox="0 0 64 64" width="64" height="64"><rect x="4" y="4" width="56" height="56" rx="12" fill="#0B1020"/><rect x="4" y="4" width="56" height="56" rx="12" fill="none" stroke="#60a5fa" stroke-width="2" opacity=".35"/><rect x="18" y="30" width="6" height="6" fill="#60A5FA"/><rect x="26" y="30" width="6" height="6" fill="#60A5FA"/><rect x="34" y="30" width="6" height="6" fill="#60A5FA"/><rect x="26" y="22" width="6" height="6" fill="#60A5FA"/><rect x="34" y="22" width="6" height="6" fill="#60A5FA"/><path d="M16 38h28c2 0 4 2 6 2 3 0 4-2 4-2-1 7-5 12-14 12H24c-6 0-10-4-8-14z" fill="#3B82F6"/></svg>