<svg xmlns="http://www.w3.org/2000/svg" viewBox="0 0 64 64" width="64" height="64"><rect x="4" y="4" width="56" height="56" rx="12" fill="#1f2937"/><rect x="4" y="4" width="56" height="56" rx="12" fill="none" stroke="#93c5fd" stroke-width="2" opacity=".35"/><path d="M22 22c0-4 4-7 10-7h6v8H28c-2 0-3 1-3 3v6h-3c-3 0-5-2-5-5v-5z" fill="#3776AB"/><path d="M42 42c0 4-4 7-10 7h-6v-8h10c2 0 3-1 3-3v-6h3c3 0 5 2 5 5v5z" fill="#FFD43B"/><circle cx="36" cy="19" r="1.6" fill="#fff"/><circle cx="28" cy="45" r="1.6" fill="#111"/></svg>